Patient4_TMGait_0pt7_01_left_36_EMG.mot
version=1
nRows=26
nColumns=33
inDegrees=no
endheader
time	1LAddLong	2LGlutMax	3LGlutMed	4LIliopsoas	5LSemiMemb	6LBicFemLong	7LRecFem	8LVastMed	9LVastLat	10LGasMed	11LTibAnt	12lTibPost	13LPeroneusLong	14LSol	15LExtDigLong	16LFlexDigLong	17RAddLong	18RGlutMax	19RGlutMed	20RIliopsoas	21RSemiMemb	22RBicFemLong	23RRecFem	24RVastMed	25RVastLat	26RGasMed	27RTibAnt	28RTibPost	29RPeroneusLong	30RSol	31RExtDigLong	32RFlexDigLong
41.56	0.012817	0.34256	0.054321	0.013733	0.020294	-0.046539	0.084534	0.007324	0.28946	-0.046997	-0.000458	0.001068	0.006409	0.22583	-0.29892	0.033417	0.040131	-0.19501	-0.23254	-0.01236	-0.099487	-0.010223	-0.38849	0.12131	0.003052	0.046082	-0.52765	0.02655	0.45731	-0.14725	0.000916	0.000458
41.561	0.019836	0.36484	0.076904	0.020294	0.019836	-0.015717	0.092926	0.006256	0.30289	-0.03418	0.023041	-0.014496	0.027771	0.12054	-0.23804	0.26276	0.036011	-0.25284	-0.19745	-0.007935	-0.097198	-0.13886	-0.15915	-0.065155	0.081024	0.035858	-0.25238	0.02243	0.2565	-0.36926	-0.000153	-0.002441
41.562	0.01297	0.38864	0.028992	0.018158	-0.052185	-0.046539	0.093536	0.006409	0.28854	-0.031891	0.05188	0.018005	0.008087	0.008545	-0.12924	0.006104	0.027313	-0.25192	0.17014	-0.053558	-0.10635	-0.12589	0.014648	-0.18112	0.075226	0.029449	-0.30319	-0.001526	0.066986	-0.36423	-0.001221	-0.005188
41.563	0.008087	0.41946	-0.019379	0.011902	-0.025177	-0.068359	0.093536	0.004883	0.28397	-0.028687	0.076904	0.010834	-0.030212	-0.019226	-0.057983	-0.007324	0.002899	-0.2861	0.69626	-0.053253	-0.088654	0.040588	0.096436	0.063171	0.070343	0.024109	-0.58197	-0.013733	0.1442	-0.2739	0	-0.00946
41.564	0.005188	0.45456	-0.040131	0.011292	0.002289	-0.057831	0.087891	0.00061	0.27741	-0.057373	0.070801	-0.017853	-0.000458	-0.058136	0.022278	0.072632	-0.007935	-0.32883	0.58823	-0.03479	-0.095825	0.27176	0.31143	0.24475	0.019684	0.028229	-0.82398	-0.005951	0.11871	-0.082092	0.000153	-0.003204
41.565	0.00473	0.46463	-0.043945	0.012817	0.003815	-0.023499	0.075531	0.009308	0.27206	-0.046387	-0.00412	-0.014801	0.020447	-0.11566	0.098724	0.018768	-0.016022	-0.38925	-0.1915	-0.001221	-0.089264	0.41168	0.07843	0.35126	-0.037689	0.022278	-0.60623	-0.014343	0.23132	0.22888	0	-0.000458
41.566	0.011292	0.42496	-0.05722	0.005646	-0.046997	-0.006104	0.068665	0.007324	0.25971	-0.03006	0.02533	-0.021667	-0.021362	-0.13977	0.053558	0.005035	-0.00885	-0.39856	-0.69595	-0.023193	-0.09079	0.34866	-0.028381	0.23865	-0.031433	0.024414	-0.24994	-0.016479	0.36652	0.21225	0.005188	0.003967
41.567	0.001984	0.41428	-0.086517	-0.001526	-0.065002	-0.019073	0.086212	0.000305	0.25742	-0.030212	0.093689	-0.007019	-0.016479	-0.15976	0.001221	-0.007019	0.001831	-0.4187	-0.70038	-0.094299	-0.075531	0.12604	-0.13794	0.073242	-0.007019	0.009918	-0.24262	-0.016937	0.16434	0.18234	0.003357	0.003052
41.568	0.012054	0.32089	-0.12909	0.012512	-0.062561	-0.026398	0.062103	0.00412	0.26627	-0.032654	0.011292	-0.006104	0.043182	-0.093231	-0.015411	-0.014343	0.011139	-0.58273	-0.26382	-0.18723	-0.04364	-0.037537	-0.16632	-0.040894	0.010223	-0.004272	-0.4303	-0.020752	-0.027313	0.26047	-0.001068	-0.006104
41.569	0.011139	0.27969	-0.15701	0.003204	-0.0354	-0.01236	0.089569	0.006866	0.28153	-0.053406	-0.11337	-0.009766	0.12039	-0.057373	-0.011139	-0.013275	0	-0.73257	-0.20248	-0.24429	-0.023651	-0.17502	-0.27313	-0.000916	0.065002	-0.009613	-0.21255	-0.02533	-0.091095	0.21149	0.000916	-0.011902
41.57	0.00946	0.25894	-0.13107	0.006561	0.029297	-0.022888	0.080872	0.003967	0.31311	-0.097046	-0.10742	0.009613	0.16205	-0.13687	0.037537	-0.01297	0.007019	-0.75836	-0.75562	-0.14816	-0.003052	-0.4863	-0.36255	0.050049	0.076141	0.007019	-0.043488	-0.022888	0.16922	0.18326	-0.002441	-0.010681
41.571	0.003967	0.26032	-0.121	0.000153	0.039215	-0.020447	0.03479	0.001984	0.35339	-0.058899	-0.09903	0.00946	0.11459	-0.13458	0.028381	-0.003662	0.010376	-0.67658	-0.93033	0.037994	-0.032196	-0.46005	-0.23804	0.014801	0.11627	0.026855	0.10666	-0.02182	0.16968	0.10056	-0.000763	-0.009613
41.572	0.008698	0.24002	-0.041351	0.004883	0.007782	-0.0383	-0.10956	0.001526	0.37872	-0.029907	-0.069733	0.009003	0.097351	-0.1004	-0.049896	-0.006104	0.013123	-0.4834	-0.95398	0.27313	-0.060272	-0.40237	-0.26352	-0.053711	0.51697	0.041351	0.11673	-0.02243	-0.12268	0.011749	-0.001068	-0.025177
41.573	0.006866	0.22095	-0.047302	0.00824	0.039215	-0.030823	-0.13977	-0.000153	0.383	0.01236	-0.032959	0.010529	0.066528	-0.16571	-0.030212	-0.026703	0.005493	-0.49072	-0.43488	0.23209	-0.083618	-0.30975	-0.31967	-0.011597	0.6012	0.001984	0.10712	-0.02533	-0.32593	-0.011597	-0.002441	-0.021057
41.574	0.007019	0.16052	-0.079498	0.007477	0.019073	0.028381	-0.16205	0.007782	0.38757	0.000916	-0.024109	0.021973	0.055542	-0.16373	-0.007477	-0.007019	-0.002899	-0.58014	-0.45288	0.14267	-0.069885	-0.24307	-0.21286	-0.006561	0.43396	-0.070038	0.13565	-0.018616	-0.37903	-0.032043	-0.00061	-0.024109
41.575	0.010223	0.13031	-0.049744	0.009918	0.010376	0.022125	-0.18875	0.00473	0.39154	0.002441	-0.015259	-0.002899	0.067902	-0.21088	0.028839	0.002899	-0.010223	-0.6517	0.018921	0.028381	-0.060577	-0.2034	-0.070496	-0.005798	0.17868	-0.033875	0.18463	-0.016022	-0.3035	-0.029144	-0.000458	-0.019531
41.576	0.006256	0.11231	-0.047455	-0.001526	0.016632	0.035095	-0.18768	0.001221	0.38315	0.000763	0.001984	0.014954	0.067139	-0.11429	0.037689	0.001984	-0.003967	-0.6337	0.006256	0.023956	-0.056915	-0.11643	0.018158	-0.071259	-0.15198	-0.032349	0.10208	-0.018463	-0.23407	0.008392	0.002747	-0.016479
41.577	0.011292	0.070801	-0.062866	0.000305	0.00351	0.016785	-0.17868	0.00824	0.39261	-0.010986	-0.002594	-0.013428	0.063171	-0.013885	0.026245	0.011749	-0.004272	-0.63446	-0.66498	0.035706	-0.049744	0.17716	0.079651	-0.16327	-0.59097	-0.02533	0.03067	-0.016022	-0.23178	0.068359	-0.003357	-0.016022
41.578	0.007324	0.065002	-0.070648	0.009155	-0.003967	0.005188	-0.16281	0.006714	0.41046	-0.016785	-0.003204	-0.001831	0.03952	0.02594	0.017853	0.004883	0.002747	-0.58701	-0.63797	0.007935	-0.042877	0.33966	0.35446	-0.081787	-0.76157	-0.027618	0.072174	-0.018005	-0.23483	-0.010529	-0.001068	-0.015106
41.579	0.010834	0.049438	-0.092316	0.01709	-0.000305	-0.001373	-0.096741	0.007172	0.38452	-0.027771	0.000763	0.005188	0.084534	0.016174	0.00412	0.010223	0.003967	-0.6247	-0.7309	0.080109	-0.0383	0.18662	0.52109	-0.058899	-0.47501	-0.019684	0.33295	-0.013123	-0.066528	-0.12695	-0.003052	-0.011444
41.58	0.004425	-0.023193	-0.15442	0.009766	0.009766	0.018005	-0.080872	0.00473	0.33234	-0.041962	0.003357	0.006104	0.067291	-0.038147	0.010681	0.006104	0.007324	-0.63705	-0.60547	0.121	-0.031891	0.067596	0.2243	-0.103	-0.17807	-0.019836	0.37079	-0.005493	0.049133	-0.24307	-0.002594	-0.014648
41.581	-0.000916	-0.012512	-0.20355	0.014496	-0.018005	0.016785	-0.023499	0.000763	0.25238	-0.070343	0.006866	0.003967	-0.03067	-0.007782	0.051422	0.017395	0.006256	-0.60333	-0.29938	0.033722	-0.045471	-0.13489	-0.072021	-0.15335	-0.031586	-0.03067	-0.043335	-0.006104	-0.054321	-0.067139	-0.001831	-0.016327
41.582	-0.01297	-0.006866	-0.18524	0.016327	-0.049286	0.041809	0.020599	0.008087	0.14648	-0.048065	0.003967	-0.012817	-0.008545	-0.002136	0.006714	0.018463	-0.00824	-0.58334	-0.289	0	-0.035248	-0.16205	-0.12421	-0.11963	0.032654	-0.0354	-0.18066	-0.007629	-0.13519	0.027161	0.001221	0.001678
41.583	-0.016785	-0.006561	-0.05127	0.004578	-0.084686	0.029144	0.052032	0.007477	0.059967	-0.022125	0.032349	-0.00061	0.037994	-0.013123	-0.025635	0.011749	0.003204	-0.53314	-0.10651	0.018616	-0.021667	-0.12131	-0.007782	0.011444	-0.07309	-0.034637	0.14679	-0.006409	-0.13306	0.088806	0.003052	-0.010071
41.584	0.002441	-0.009613	0.00061	0.013733	-0.088348	0.011444	0.10513	0.007324	0.023956	-0.016022	0.03952	-0.009918	0.046997	-0.034485	-0.006256	0.007324	0.003052	-0.46768	-0.4071	0.025177	-0.015564	-0.041809	0.12894	0.19501	-0.16846	-0.02243	0.78339	-0.006866	-0.071869	0.040283	-0.000916	-0.012665
41.585	0.006409	-0.036163	-0.001831	0.016022	-0.011902	0.004272	0.13184	-0.002136	0.011292	-0.033875	0.027313	-0.00473	0.048981	-0.10117	-0.014343	0.017548	0.009613	-0.47791	-0.62958	0.006866	-0.042877	0.013275	0.23636	0.081329	-0.24002	-0.006256	0.72647	-0.008392	0.040436	-0.10452	0.000458	-0.00061
